<?xml version="1.0" encoding="UTF-8"?> <svg xmlns="http://www.w3.org/2000/svg" viewBox="0 0 40 40"><defs><style>.cls-1,.cls-2{fill:#ff4b4b;}.cls-1{opacity:0.1;}.cls-2{fill-rule:evenodd;}</style></defs><title>icon-circle-ease</title><g id="Layer_2" data-name="Layer 2"><g id="Layer_1-2" data-name="Layer 1"><circle class="cls-1" cx="20" cy="20" r="20"></circle><path class="cls-2" d="M27,17.88A4,4,0,0,0,23.19,14,3.78,3.78,0,0,0,20,15.86,3.64,3.64,0,0,0,16.81,14,4,4,0,0,0,13,17.88a4.09,4.09,0,0,0,.12,1.48,6.28,6.28,0,0,0,1.94,3.23L20,27l5-4.43a6.26,6.26,0,0,0,1.93-3.23A3.89,3.89,0,0,0,27,17.88Z"></path></g></g></svg> 